<?xml version="1.0" encoding="UTF-8"?>
<svg version="1.1" xmlns="http://www.w3.org/2000/svg" width="2805" height="1979">
<path d="M0 0 C2.27545693 -0.00323393 4.55091368 -0.00659936 6.82637024 -0.01008606 C11.5684151 -0.01601544 16.31044193 -0.01793278 21.05249023 -0.01733398 C25.80545917 -0.01725336 30.55833041 -0.02410424 35.3112793 -0.0378418 C66.77944056 -0.12726936 98.12943451 0.39702365 129.55078125 2.16796875 C130.59408159 2.22638632 130.59408159 2.22638632 131.65845871 2.28598404 C139.75456535 2.74342067 147.84088655 3.29463265 155.92578125 3.91796875 C157.01580444 4.00033783 158.10582764 4.08270691 159.22888184 4.16757202 C266.21650382 12.31390054 372.28224701 30.73071677 527.06225586 74.38989258 C529.46209243 75.14023881 531.86284977 75.88757999 534.26367188 76.63476562 C572.25354124 88.49172321 609.69526428 102.16026564 646.55078125 117.16796875 C647.25555603 117.45395935 647.96033081 117.73994995 648.6864624 118.03460693 C670.53738327 126.90200915 692.08318262 136.33135495 713.46630859 146.27197266 C717.37051154 148.08652408 721.2822004 149.88445072 725.1953125 151.6796875 C745.97290334 161.22607333 766.38617801 171.39026919 786.55078125 182.16796875 C787.46553223 182.65491211 788.3802832 183.14185547 789.32275391 183.64355469 C803.67526324 191.2940431 817.78608707 199.2939323 831.79638672 207.55273438 C835.07036445 209.47266317 838.3625486 211.3592543 841.6574707 213.24291992 C863.94521363 226.01681198 885.43343621 239.91158277 906.73095703 254.25444031 C910.67000327 256.90715415 914.61749216 259.54662716 918.57240295 262.17562866 C924.36185373 266.02439566 930.13258264 269.89186086 935.80078125 273.91796875 C936.4963916 274.41055176 937.19200195 274.90313477 937.90869141 275.41064453 C945.72143666 280.96587282 953.42467703 286.66882103 961.12597656 292.37695312 C963.56080334 294.17537129 966.00362987 295.96234419 968.44921875 297.74609375 C977.74291853 304.53352261 986.84045286 311.4953181 995.77880859 318.74316406 C998.1369973 320.63933233 1000.52320411 322.49820953 1002.91113281 324.35668945 C1009.73705794 329.67067405 1016.37589281 335.1715863 1022.94628906 340.79736328 C1025.08092483 342.62083334 1027.22642366 344.43125616 1029.37231445 346.24145508 C1031.54694773 348.07703087 1033.71711414 349.91784947 1035.88720703 351.75878906 C1037.00413293 352.70491414 1038.12231622 353.64955669 1039.24169922 354.59277344 C1046.80280233 360.96524094 1054.15137902 367.51136322 1061.34912109 374.29248047 C1065.11518001 377.8398714 1068.94009274 381.29045858 1072.86328125 384.6640625 C1075.24034478 386.78251032 1077.44844355 389.05361381 1079.67677307 391.32640076 C1081.48749205 393.10577512 1083.35581577 394.76097591 1085.28491211 396.41040039 C1089.46099315 400.04307505 1093.39803617 403.87040367 1097.3046875 407.7890625 C1098.00923569 408.49265396 1098.71378387 409.19624542 1099.43968201 409.92115784 C1100.91731492 411.39811523 1102.39370582 412.87631617 1103.86889648 414.35571289 C1106.10744606 416.5996196 1108.35128598 418.83813579 1110.59570312 421.07617188 C1112.04068529 422.52181493 1113.48535717 423.9677682 1114.9296875 425.4140625 C1115.59029678 426.07264755 1116.25090607 426.7312326 1116.93153381 427.40977478 C1120.7644788 431.26176659 1124.41397039 435.21825297 1127.94566345 439.34877014 C1129.57965149 441.20068953 1131.28761139 442.93930815 1133.05078125 444.66796875 C1136.06491707 447.63532198 1138.84995458 450.74142167 1141.609375 453.9453125 C1143.83882186 456.49773758 1146.13079507 458.98684389 1148.42578125 461.48046875 C1152.57323383 466.0232156 1156.4831082 470.70916837 1160.34375 475.49609375 C1162.46701463 478.06655925 1164.66889974 480.52716238 1166.92578125 482.98046875 C1170.90586591 487.35305311 1174.56425622 491.90966166 1178.18530273 496.57788086 C1181.18606907 500.44354657 1184.24039278 504.25704011 1187.34472656 508.04003906 C1208.41282375 533.71482655 1227.79970548 561.10981672 1245.55078125 589.16796875 C1246.38730225 590.481604 1246.38730225 590.481604 1247.24072266 591.82177734 C1261.48277409 614.20766813 1274.65591094 637.14481887 1287.14746094 660.54931641 C1288.38609141 662.86065087 1289.63977584 665.16262666 1290.90234375 667.4609375 C1297.79077578 680.0837997 1303.75347538 693.15314751 1309.68109131 706.24755859 C1310.54927021 708.16463215 1311.42037665 710.08035849 1312.29150391 711.99609375 C1342.98811583 779.66857245 1364.09797398 851.66198992 1383.55078125 1045.16796875 C1383.53289551 1046.17537109 1383.51500977 1047.18277344 1383.49658203 1048.22070312 C1381.83570935 1131.87049511 1366.59169094 1214.54888027 1321.55078125 1338.16796875 C1321.0614209 1339.3163623 1320.57206055 1340.46475586 1320.06787109 1341.64794922 C1308.76368174 1367.97083482 1296.44675564 1393.84024453 1282.02392578 1418.60058594 C1280.12093841 1421.91709492 1278.31003437 1425.2791109 1276.5 1428.64697266 C1252.48939297 1473.2241874 1221.78631188 1515.20395924 1189.55078125 1554.16796875 C1188.86113281 1555.02003906 1188.17148438 1555.87210938 1187.4609375 1556.75 C1178.38550406 1567.95889881 1168.90059332 1578.80360374 1159.109375 1589.390625 C1156.66614559 1592.0427412 1154.26120493 1594.72491601 1151.86328125 1597.41796875 C1148.40319405 1601.28329138 1144.80864114 1604.96591394 1141.08203125 1608.57421875 C1139.45731511 1610.10723881 1139.45731511 1610.10723881 1138.55078125 1612.16796875 C1137.89078125 1612.16796875 1137.23078125 1612.16796875 1136.55078125 1612.16796875 C1136.31375488 1612.7302417 1136.07672852 1613.29251465 1135.83251953 1613.87182617 C1134.25688824 1616.69445708 1132.33503767 1618.62568881 1130.04296875 1620.90625 C1129.13804687 1621.80923828 1128.233125 1622.71222656 1127.30078125 1623.64257812 C1126.82769531 1624.10946045 1126.35460938 1624.57634277 1125.8671875 1625.05737305 C1124.44619942 1626.46030996 1123.03357682 1627.87170368 1121.62109375 1629.28320312 C1116.9428345 1633.93172768 1112.20411113 1638.43971356 1107.19970703 1642.73510742 C1105.21855807 1644.45665958 1103.37341652 1646.28023937 1101.55078125 1648.16796875 C1098.40098095 1651.36058187 1095.13858636 1654.33958154 1091.73828125 1657.26171875 C1089.19566726 1659.47742523 1086.71967927 1661.75895467 1084.23828125 1664.04296875 C1079.78040386 1668.10894483 1075.19795959 1671.96122837 1070.50390625 1675.75 C1067.11718648 1678.5229888 1063.80152791 1681.37054805 1060.48828125 1684.23046875 C1054.93938289 1689.00639733 1049.31883041 1693.65726 1043.55078125 1698.16796875 C1042.91688477 1698.66522461 1042.28298828 1699.16248047 1041.62988281 1699.67480469 C1031.68908609 1707.46820734 1021.69337314 1715.18375689 1011.53857422 1722.69677734 C1010.23620935 1723.6606745 1008.93568014 1724.62705799 1007.63720703 1725.59619141 C993.65880279 1736.01001399 979.09973035 1745.57118619 964.56503296 1755.18264771 C961.25480226 1757.37201815 957.94961415 1759.56816099 954.65649414 1761.78320312 C946.67263061 1767.14973561 938.60085475 1772.32006682 930.36328125 1777.29296875 C929.47678894 1777.82905762 929.47678894 1777.82905762 928.5723877 1778.37597656 C881.97740129 1806.52885211 833.57442446 1831.82609778 783.59423828 1853.41748047 C779.87232361 1855.02550018 776.1620247 1856.65903581 772.453125 1858.296875 C742.43516549 1871.46850747 711.6350316 1882.81124718 680.63909912 1893.44909668 C678.56329178 1894.16366219 676.48964224 1894.88417644 674.41650391 1895.60644531 C616.08564623 1915.89754929 556.07170262 1931.04978265 495.55078125 1943.16796875 C494.6550238 1943.34759155 493.75926636 1943.52721436 492.83636475 1943.71228027 C429.9487808 1956.2768439 366.31039174 1964.27402567 302.36937618 1968.95462799 C300.46155766 1969.09903166 298.55451663 1969.25403248 296.64834023 1969.41870022 C286.63394155 1970.23286993 276.67744836 1970.32320905 266.63574219 1970.32910156 C264.77081202 1970.33374218 262.90588278 1970.33876846 261.04095459 1970.34414673 C256.00606662 1970.35717071 250.97119194 1970.36369837 245.93628979 1970.36815739 C242.76760627 1970.3711101 239.5989262 1970.37521922 236.43024445 1970.37966156 C226.45094248 1970.39332282 216.4716486 1970.40299085 206.49233794 1970.40686345 C195.09842387 1970.41131258 183.70463165 1970.42871821 172.31075454 1970.45786405 C163.42835825 1970.47976871 154.54599545 1970.48958308 145.66357255 1970.49090457 C140.39631069 1970.49193424 135.12916344 1970.49743247 129.86193085 1970.51572418 C102.28840706 1970.6060232 75.02293262 1969.5468698 47.55078125 1967.16796875 C46.26279349 1967.05835721 44.97480574 1966.94874567 43.64778805 1966.83581257 C36.83826305 1966.25296095 30.03701714 1965.61538294 23.23828125 1964.91796875 C22.22847198 1964.81569977 21.21866272 1964.71343079 20.17825317 1964.60806274 C-80.76104987 1954.3223853 -180.26827729 1934.42594534 -314.54541016 1894.46289062 C-317.96702131 1893.32513899 -321.39424114 1892.20519578 -324.82275391 1891.08843994 C-361.25404694 1879.21310749 -396.99136813 1865.68178823 -432.44921875 1851.16796875 C-433.08841248 1850.90649048 -433.7276062 1850.64501221 -434.38616943 1850.37561035 C-452.28615552 1843.0418355 -469.88878216 1835.06932285 -487.46386719 1826.99609375 C-491.23860145 1825.26273907 -495.01929608 1823.54279532 -498.80078125 1821.82421875 C-509.04347185 1817.15494863 -519.17892475 1812.42460186 -529.05078125 1807.01171875 C-533.28966113 1804.71200461 -537.59443572 1802.56645921 -541.9284668 1800.45263672 C-545.92448686 1798.48713202 -549.824315 1796.40962813 -553.6953125 1794.20703125 C-564.25675236 1788.27721995 -574.0437208 1784.0208554 -585.90917969 1781.53466797 C-596.34091856 1779.3287469 -606.4484759 1776.28212552 -616.63671875 1773.16796875 C-620.11019251 1772.11298394 -623.58442215 1771.06049664 -627.05859375 1770.0078125 C-627.88713867 1769.75644028 -628.71568359 1769.50506805 -629.56933594 1769.24607849 C-647.3613321 1763.85413362 -665.13502479 1759.42007817 -683.44921875 1756.16796875 C-684.31321289 1756.01199219 -685.17720703 1755.85601563 -686.06738281 1755.6953125 C-712.077862 1751.15396261 -738.95984351 1750.80884741 -765.28515625 1751.4765625 C-766.7348134 1751.51063737 -766.7348134 1751.51063737 -768.21375656 1751.54540062 C-792.95200411 1752.13077924 -817.67118253 1753.20121298 -842.39035797 1754.31461716 C-846.1394084 1754.48340366 -849.88851601 1754.65087335 -853.63763428 1754.81814575 C-935.28093982 1758.46876885 -1016.21131488 1764.39995811 -1097.35113049 1774.19190216 C-1103.20155039 1774.89784265 -1109.05242691 1775.59989091 -1114.90353966 1776.30006504 C-1127.73583384 1777.83566395 -1140.56671356 1779.38265466 -1153.39654541 1780.93869019 C-1158.03077792 1781.50064798 -1162.6653418 1782.05973449 -1167.30023193 1782.61624146 C-1189.00084028 1785.22491644 -1210.68306647 1787.86835469 -1232.26171875 1791.36328125 C-1233.00149963 1791.48221363 -1233.74128052 1791.60114601 -1234.503479 1791.7236824 C-1273.58645986 1798.05968294 -1310.65185202 1812.41421662 -1346.44921875 1828.98046875 C-1347.58818604 1829.50745361 -1348.72715332 1830.03443848 -1349.90063477 1830.57739258 C-1360.2793182 1835.44679338 -1370.08527362 1840.60852401 -1379.32421875 1847.41796875 C-1387.86590668 1853.69411938 -1387.86590668 1853.69411938 -1392.44921875 1855.16796875 C-1397.23133188 1851.97989333 -1399.58814915 1848.50500432 -1401.44921875 1843.16796875 C-1403.66013302 1830.34466596 -1393.01153151 1816.55004829 -1386.44921875 1806.16796875 C-1385.46308594 1804.59402344 -1385.46308594 1804.59402344 -1384.45703125 1802.98828125 C-1382.80395445 1800.37031843 -1381.13905177 1797.76233526 -1379.44921875 1795.16796875 C-1378.84335938 1794.20761719 -1378.2375 1793.24726562 -1377.61328125 1792.2578125 C-1375.19854238 1788.81005357 -1372.52930412 1785.83808302 -1369.63671875 1782.79296875 C-1368.55512461 1781.64013383 -1367.47438969 1780.48649216 -1366.39453125 1779.33203125 C-1365.62351074 1778.50880371 -1365.62351074 1778.50880371 -1364.83691406 1777.66894531 C-1363.17908713 1775.87578557 -1361.58977455 1774.03150198 -1360.01171875 1772.16796875 C-1356.18940831 1767.72608181 -1351.98733298 1763.65585827 -1347.80297852 1759.55859375 C-1344.74695289 1756.65499876 -1344.74695289 1756.65499876 -1342.44921875 1753.16796875 C-1341.78921875 1753.16796875 -1341.12921875 1753.16796875 -1340.44921875 1753.16796875 C-1340.44921875 1752.50796875 -1340.44921875 1751.84796875 -1340.44921875 1751.16796875 C-1339.78921875 1751.16796875 -1339.12921875 1751.16796875 -1338.44921875 1751.16796875 C-1338.18133545 1750.57338867 -1337.91345215 1749.97880859 -1337.63745117 1749.36621094 C-1336.43711202 1747.14557118 -1335.24218877 1745.74360805 -1333.4375 1743.99609375 C-1332.84831787 1743.41867432 -1332.25913574 1742.84125488 -1331.65209961 1742.24633789 C-1331.02827393 1741.64297607 -1330.40444824 1741.03961426 -1329.76171875 1740.41796875 C-1324.76145322 1735.49702255 -1319.97874871 1730.52791253 -1315.44921875 1725.16796875 C-1314.51333565 1724.0936414 -1313.57565229 1723.02088112 -1312.63671875 1721.94921875 C-1306.14329807 1714.52745353 -1299.79334621 1707.00318878 -1293.54736328 1699.37207031 C-1289.99636354 1695.0355914 -1286.40342582 1690.74092518 -1282.76171875 1686.48046875 C-1279.08215669 1682.17027731 -1275.54545816 1677.77230952 -1272.07421875 1673.29296875 C-1267.6195457 1667.54914397 -1262.94161836 1662.03788083 -1258.15161133 1656.57177734 C-1254.94617653 1652.91047336 -1251.81738744 1649.20656679 -1248.76171875 1645.41796875 C-1244.98245997 1640.74744053 -1240.97855852 1636.32906702 -1236.91015625 1631.91015625 C-1234.5388198 1629.26780992 -1232.29668878 1626.56102708 -1230.07421875 1623.79296875 C-1226.20638329 1618.9957594 -1222.0981238 1614.49592668 -1217.88891602 1610.00219727 C-1214.79171029 1606.6767712 -1211.85314808 1603.280952 -1209.01171875 1599.73046875 C-1205.50278188 1595.3554422 -1201.79072648 1591.24781216 -1197.94921875 1587.16796875 C-1193.26162595 1582.18854137 -1188.83689394 1577.08616188 -1184.55859375 1571.74609375 C-1182.42936729 1569.14370585 -1180.21472518 1566.65221373 -1177.94921875 1564.16796875 C-1174.10852218 1559.94917252 -1170.49011529 1555.5907858 -1166.90234375 1551.15625 C-1164.11469544 1547.76046822 -1161.25717879 1544.43118752 -1158.38671875 1541.10546875 C-1154.36541904 1536.43795582 -1150.4299551 1531.72431359 -1146.61328125 1526.88671875 C-1144.95859325 1524.80790495 -1143.28771055 1522.74897682 -1141.59765625 1520.69921875 C-1119.66954904 1494.06347846 -1100.41599107 1465.69723485 -1082.07592773 1436.5078125 C-1078.60669785 1430.98745733 -1075.09873459 1425.49308153 -1071.57543945 1420.00708008 C-1058.72331431 1399.9907276 -1046.33756106 1379.77281458 -1034.44921875 1359.16796875 C-1034.9088501 1358.37148926 -1035.36848145 1357.57500977 -1035.84204102 1356.75439453 C-1081.24626103 1277.92273661 -1117.31341975 1194.96311257 -1162.44921875 966.16796875 C-1162.54493164 964.89808105 -1162.64064453 963.62819336 -1162.73925781 962.31982422 C-1163.78475089 947.12707341 -1163.69639665 931.8892967 -1163.69921875 916.66796875 C-1163.69966061 915.57341118 -1163.69966061 915.57341118 -1163.70011139 914.45674133 C-1163.70172846 889.5904446 -1163.13357032 864.90986945 -1160.44921875 840.16796875 C-1160.35211609 839.26892822 -1160.25501343 838.3698877 -1160.15496826 837.44360352 C-1151.07430182 754.46255404 -1129.23661272 674.17930841 -1063.17529297 537.14599609 C-1061.43094303 534.13643732 -1059.70787642 531.11528596 -1057.984375 528.09375 C-1049.91427207 514.08787541 -1041.2263049 500.55355352 -1032.26171875 487.10546875 C-1031.72253815 486.29529297 -1031.18335754 485.48511719 -1030.62783813 484.65039062 C-1019.79651833 468.40660672 -1008.4856002 452.54249085 -996.44921875 437.16796875 C-995.53381218 435.99352231 -994.61844893 434.8190421 -993.703125 433.64453125 C-982.12217585 418.81480099 -970.12080156 404.36161185 -957.484375 390.41796875 C-955.49883094 388.22281831 -953.53025544 386.0144384 -951.57421875 383.79296875 C-951.04054688 383.18710937 -950.506875 382.58125 -949.95703125 381.95703125 C-948.38132319 380.1394111 -948.38132319 380.1394111 -946.87890625 377.94140625 C-946.40710938 377.35617187 -945.9353125 376.7709375 -945.44921875 376.16796875 C-944.78921875 376.16796875 -944.12921875 376.16796875 -943.44921875 376.16796875 C-943.18568604 375.57773926 -942.92215332 374.98750977 -942.65063477 374.37939453 C-941.39945174 372.07636348 -940.10116897 370.60435433 -938.2265625 368.78515625 C-937.60587891 368.17542969 -936.98519531 367.56570313 -936.34570312 366.9375 C-935.69923828 366.31230469 -935.05277344 365.68710937 -934.38671875 365.04296875 C-933.10197945 363.79260801 -931.81932194 362.54010359 -930.5390625 361.28515625 C-929.68622681 360.45927002 -929.68622681 360.45927002 -928.81616211 359.61669922 C-927.3419197 358.19382863 -927.3419197 358.19382863 -926.44921875 356.16796875 C-925.78921875 356.16796875 -925.12921875 356.16796875 -924.44921875 356.16796875 C-924.44921875 355.50796875 -924.44921875 354.84796875 -924.44921875 354.16796875 C-923.78921875 354.16796875 -923.12921875 354.16796875 -922.44921875 354.16796875 C-922.44921875 353.50796875 -922.44921875 352.84796875 -922.44921875 352.16796875 C-921.78921875 352.16796875 -921.12921875 352.16796875 -920.44921875 352.16796875 C-920.44921875 351.50796875 -920.44921875 350.84796875 -920.44921875 350.16796875 C-919.78921875 350.16796875 -919.12921875 350.16796875 -918.44921875 350.16796875 C-918.44921875 349.50796875 -918.44921875 348.84796875 -918.44921875 348.16796875 C-917.78921875 348.16796875 -917.12921875 348.16796875 -916.44921875 348.16796875 C-916.44921875 347.50796875 -916.44921875 346.84796875 -916.44921875 346.16796875 C-915.78921875 346.16796875 -915.12921875 346.16796875 -914.44921875 346.16796875 C-914.44921875 345.50796875 -914.44921875 344.84796875 -914.44921875 344.16796875 C-913.78921875 344.16796875 -913.12921875 344.16796875 -912.44921875 344.16796875 C-912.44921875 343.50796875 -912.44921875 342.84796875 -912.44921875 342.16796875 C-911.78921875 342.16796875 -911.12921875 342.16796875 -910.44921875 342.16796875 C-910.44921875 341.50796875 -910.44921875 340.84796875 -910.44921875 340.16796875 C-909.05078125 338.79296875 -909.05078125 338.79296875 -907.07421875 337.16796875 C-903.70126727 334.3075152 -900.55248398 331.31927214 -897.44921875 328.16796875 C-893.98013744 324.66203833 -890.44642548 321.33997612 -886.69921875 318.13671875 C-884.36047156 316.09031496 -882.08881361 313.98419091 -879.81811523 311.86303711 C-874.49074311 306.88839937 -869.07027278 302.13513911 -863.3828125 297.5703125 C-859.90017578 294.718353 -856.52160582 291.7595475 -853.13671875 288.79296875 C-846.70842727 283.18270553 -840.11040212 277.85328444 -833.35498047 272.64404297 C-831.2959459 271.04925396 -829.24892985 269.43984584 -827.203125 267.828125 C-817.52598356 260.22079598 -807.67944154 252.9034932 -797.65966797 245.75488281 C-795.51734866 244.21688022 -793.38938094 242.66116368 -791.265625 241.09765625 C-778.94405922 232.05005356 -766.25480915 223.57694783 -753.49121094 215.17138672 C-751.67012829 213.97204448 -749.85009887 212.77109721 -748.03222656 211.56689453 C-727.87670039 198.21864736 -707.07492655 185.88839104 -685.91015625 174.21875 C-682.29337915 172.22036519 -678.73447119 170.1534321 -675.203125 168.0078125 C-671.22478012 165.59930739 -667.19738683 163.4393076 -663.01171875 161.41796875 C-656.99249379 158.46362823 -651.05302548 155.38546781 -645.13671875 152.23046875 C-638.00518883 148.44098091 -630.7950424 144.87397276 -623.46948242 141.47485352 C-618.90288204 139.35249419 -614.39530782 137.13801791 -609.90234375 134.86328125 C-602.04748049 130.90672792 -594.05264036 127.29055381 -586.01171875 123.73046875 C-585.24354828 123.38992462 -584.47537781 123.04938049 -583.68392944 122.69851685 C-552.54778599 108.92114208 -521.00153308 96.41604718 -488.91101074 85.04107666 C-486.52463471 84.19471604 -484.13967349 83.34446794 -481.75488281 82.49365234 C-386.36338668 48.54759886 -286.62155717 26.22122124 -71.01171875 2.41796875 C-70.08913269 2.3588028 -69.16654663 2.29963684 -68.21600342 2.23867798 C-45.48389913 0.80212709 -22.7775571 0.00786138 0 0 Z " fill="#C0B5A5" transform="translate(1413.44921875,8.83203125)"/>
<path d="M0 0 C2.3125 2.5625 2.3125 2.5625 4 5 C4.66 4.67 5.32 4.34 6 4 C16.45410078 3.4359803 26.75985944 4.39407552 37.125 5.6875 C38.21867386 5.82046478 38.21867386 5.82046478 39.33444214 5.95611572 C62.86284915 8.82606322 86.0733107 12.92976468 109 19 C109.84755859 19.22236328 110.69511719 19.44472656 111.56835938 19.67382812 C139.07625088 27.02829233 164.68095379 39.22503562 190 52 C190.60684631 52.30566895 191.21369263 52.61133789 191.83892822 52.92626953 C205.51093037 59.82061386 218.93585133 67.01289982 232 75 C232.78197754 75.4734082 233.56395508 75.94681641 234.36962891 76.43457031 C261.50239136 92.87255093 287.78126118 110.75466242 313 130 C314.10534548 130.83740232 315.21080972 131.67464791 316.31640625 132.51171875 C324.4153495 138.66829774 332.30886258 145.06767683 340.1796875 151.51171875 C341.77261865 152.81409379 343.3702952 154.11066032 344.96875 155.40625 C351.20494501 160.46857301 357.31951974 165.66175333 363.40234375 170.90625 C365.7378338 172.91945125 368.08356402 174.91928161 370.44140625 176.90625 C377.60057524 182.95562041 384.52621813 189.2029312 391.31982422 195.66137695 C395.21124774 199.3563705 399.18437339 202.92662638 403.23681641 206.4440918 C405.24597296 208.21705701 407.13901062 210.07254671 409 212 C412.15606236 215.20537584 415.44554274 218.16760806 418.859375 221.09375 C421.07178285 223.06392341 423.16411275 225.11548035 425.25 227.21875 C425.95640625 227.92966797 426.6628125 228.64058594 427.390625 229.37304688 C427.92171875 229.90994141 428.4528125 230.44683594 429 231 C428.98952637 230.35377686 428.97905273 229.70755371 428.96826172 229.04174805 C428.08632544 165.48093512 439.81571095 100.52305181 469.1875 43.75 C469.79343994 42.57002441 469.79343994 42.57002441 470.41162109 41.36621094 C472.26025412 37.87157624 474.0924181 34.7425579 476.7109375 31.76953125 C479.00791362 28.99042533 479.72936764 27.40131024 480.4375 23.9375 C481.34330041 20.61956812 482.12156736 18.28241057 484.625 15.875 C491.6234968 11.98694622 498.31234312 14.13456883 505.73095703 16.04101562 C511.1216813 17.6224021 516.2260929 19.76723233 521.375 22 C522.49841797 22.48275391 523.62183594 22.96550781 524.77929688 23.46289062 C547.81704895 33.48099939 569.6616815 44.8466145 589 61 C589.55526367 61.45906738 590.11052734 61.91813477 590.68261719 62.39111328 C597.45637861 67.99664628 604.03667303 73.78518768 610.515625 79.73046875 C612.67512849 81.70322273 614.85593884 83.64279179 617.0625 85.5625 C624.79213026 92.28868942 632.35172221 99.20602996 639.890625 106.14453125 C641.91328178 108.00580584 643.94466222 109.85666038 645.984375 111.69921875 C652.79016467 117.87470135 659.36638425 124.26208236 665.875 130.75 C667.07008179 131.93819336 667.07008179 131.93819336 668.28930664 133.15039062 C673.06544789 137.93905453 677.60756381 142.85868504 682 148 C682.97327498 149.11778287 683.94720519 150.23499566 684.921875 151.3515625 C691.87194739 159.37600125 698.52129652 167.59157363 705 176 C705.79792969 177.03511719 706.59585937 178.07023438 707.41796875 179.13671875 C708.61937583 180.69874394 709.8207688 182.26078154 711.02001953 183.82446289 C714.65823216 188.56665055 718.3278089 193.28409726 722 198 C723.20579837 199.55072744 724.41152865 201.10150783 725.6171875 202.65234375 C727.63868378 205.25229723 729.66417915 207.8489779 731.6953125 210.44140625 C749.50894908 233.32419665 763.98007743 257.14987121 775 284 C775.54527344 285.30130859 775.54527344 285.30130859 776.1015625 286.62890625 C778.93963531 294.46676154 778.25718868 302.78901333 778 311 C779.22976563 311.36222656 780.45953125 311.72445313 781.7265625 312.09765625 C787.97153548 314.18622297 793.61115423 317.2868872 799.375 320.4375 C800.5196875 321.06003662 801.664375 321.68257324 802.84375 322.32397461 C819.39154178 331.41346007 834.88496066 341.70419407 850 353 C850.58974609 353.44053711 851.17949219 353.88107422 851.78710938 354.33496094 C855.56538973 357.17199325 859.29546636 360.06769109 863 363 C863.93924316 363.7420166 863.93924316 363.7420166 864.89746094 364.49902344 C877.41432989 374.42577407 889.04905299 384.99072235 900.375 396.25 C901.02919922 396.8994458 901.68339844 397.5488916 902.35742188 398.21801758 C906.77280621 402.64859246 910.93552645 407.24673414 915 412 C915.50418457 412.5878125 916.00836914 413.175625 916.52783203 413.78125 C917.97929688 415.47712624 919.42734284 417.17587302 920.875 418.875 C924.42401333 423.03206689 928.00674022 427.14575502 931.6875 431.1875 C934.6791816 434.47942205 937.52524423 437.84591307 940.3125 441.3125 C943.72422523 445.53398899 947.29319816 449.54071347 951 453.5 C955.42087216 458.22640494 959.60065768 463.07364461 963.65625 468.12109375 C966.37939102 471.46601864 969.18229667 474.73474793 972 478 C975.5690533 482.1359424 979.0776929 486.30321562 982.5 490.5625 C987.21764249 496.36621845 992.27418843 501.81557158 997.38671875 507.26904297 C999.06139463 509.06587287 1000.71968041 510.87673836 1002.375 512.69140625 C1007.44962513 518.23999464 1012.45886561 523.66859284 1018.2421875 528.49609375 C1020.09504319 530.08131473 1021.79337025 531.75893153 1023.5 533.5 C1027.16270803 537.2118719 1031.03979429 540.61011518 1035 544 C1036.05482382 544.90739364 1037.10949986 545.81495908 1038.1640625 546.72265625 C1041.17123864 549.30847979 1044.18464804 551.88692027 1047.20068359 554.46240234 C1048.3608226 555.45379386 1049.52007095 556.44622904 1050.67822266 557.43994141 C1058.31938787 563.99575303 1066.10747999 570.32026104 1074.06201172 576.49169922 C1076.13202906 578.1027558 1078.1933542 579.72451395 1080.25390625 581.34765625 C1133.48722244 623.19094793 1193.9892283 660.58623576 1258.37207031 682.06640625 C1259.11179581 682.31362427 1259.8515213 682.56084229 1260.61366272 682.81555176 C1262.00733568 683.27990151 1263.40200851 683.74126508 1264.7978363 684.19909668 C1271.3733733 686.38261703 1271.3733733 686.38261703 1274 688 C1274.36162029 689.32594105 1274.69728039 690.65938457 1275 692 C1275.99 692.33 1276.98 692.66 1278 693 C1278.48653632 699.65244855 1276.70838285 705.24358922 1274.75 711.5625 C1274.39502441 712.72797363 1274.04004883 713.89344727 1273.67431641 715.09423828 C1272.88522904 717.67308428 1272.09187077 720.25020353 1271.29199219 722.82568359 C1270.40781885 725.67465846 1269.53424464 728.52658397 1268.66894531 731.38134766 C1259.58954511 761.31971676 1248.82866049 790.42120429 1236.89990234 819.33496094 C1230.61945527 834.66249033 1225.17960992 850.29435689 1220.0234375 866.03125 C1204.31594345 913.96580626 1181.21977227 956.05263635 1140.67285156 987.69091797 C1138.71768593 989.22092353 1136.77750234 990.76918083 1134.8359375 992.31640625 C1125.51524267 999.70225617 1116.04728613 1006.63925598 1106 1013 C1105.33097656 1013.42845215 1104.66195312 1013.8569043 1103.97265625 1014.29833984 C1072.7651741 1034.20981763 1039.03778793 1048.43032006 1004 1060 C1003.02244751 1060.32390717 1003.02244751 1060.32390717 1002.02514648 1060.65435791 C950.90242898 1077.53526797 897.67586567 1088.56272856 844.6875 1097.6875 C843.71797394 1097.8563269 842.74844788 1098.02515381 841.74954224 1098.19909668 C795.81076136 1106.14129597 749.41044673 1111.20629472 703.09297663 1116.34759527 C697.70339654 1116.94684078 692.31505205 1117.55640856 686.92724609 1118.17138672 C650.33028618 1122.3462858 613.77200797 1125.97249175 577.01077271 1128.35964966 C545.99620231 1130.33331113 545.99620231 1130.33331113 515.4375 1135.75 C514.34034668 1136.00386475 513.24319336 1136.25772949 512.11279297 1136.51928711 C504.24325916 1138.37920489 496.41549815 1140.39572487 488.625 1142.5625 C487.62654053 1142.83094727 486.62808105 1143.09939453 485.59936523 1143.37597656 C478.01323517 1145.57714713 474.37140763 1148.51459572 470.34375 1155.3515625 C469.38433562 1157.10312604 468.43715422 1158.86142614 467.5 1160.625 C466.727771 1162.06504395 466.727771 1162.06504395 465.93994141 1163.53417969 C428.47872211 1234.11983557 416.36379088 1306.52765503 411.48217773 1385.24707031 C410.76096075 1396.64688571 409.89836597 1407.99846038 408.51953125 1419.33984375 C408.40286606 1420.32097641 408.28620087 1421.30210907 408.16600037 1422.31297302 C407.23912716 1429.49895533 405.43460603 1435.58873541 402 1442 C401.07553215 1443.83146382 400.16215259 1445.66823094 399.24902344 1447.50537109 C398.36540051 1449.26939205 397.45879092 1451.02184456 396.55078125 1452.7734375 C395.09250645 1455.80753066 393.98575054 1458.78538493 393 1462 C392.67 1462 392.34 1462 392 1462 C391.91959473 1461.39639648 391.83918945 1460.79279297 391.75634766 1460.17089844 C391.51659156 1458.37666094 391.27577988 1456.58256433 391.03417969 1454.78857422 C390.75949871 1452.74878938 390.48673798 1450.70874511 390.21582031 1448.66845703 C389.54526619 1443.69186234 388.78994119 1438.78979056 387.75 1433.875 C386.92934455 1428.98227267 387.03250293 1424.27061699 387.3125 1419.33984375 C387.35904724 1418.4758345 387.40559448 1417.61182526 387.45355225 1416.72163391 C388.14118015 1404.69191287 389.19059477 1392.68913616 390.25 1380.6875 C390.35948975 1379.44209442 390.46897949 1378.19668884 390.58178711 1376.9135437 C397.28630169 1301.20880332 409.75110432 1218.42724341 460 1158 C460.53238281 1157.35546875 461.06476562 1156.7109375 461.61328125 1156.046875 C462.73625788 1154.69297641 463.86695847 1153.34548682 465 1152 C463.31199445 1152.91573538 461.62462359 1153.83264074 459.9375 1154.75 C458.93332031 1155.29398438 457.92914062 1155.83796875 456.89453125 1156.3984375 C454.59502901 1157.67076668 452.36074725 1158.99686755 450.125 1160.375 C445.43532684 1162.81363004 445.43532684 1162.81363004 442 1162 C436.63215885 1158.16582775 435.23862796 1153.20259495 434 1147 C433.35017956 1142.88685082 433.26801622 1140.0096328 435.8125 1136.5 C436.85149941 1135.63754367 437.91889693 1134.80905306 439 1134 C439.74378906 1133.39414063 440.48757813 1132.78828125 441.25390625 1132.1640625 C474.03598419 1106.66146238 523.63444251 1102.81671391 563.69042969 1099.83789062 C564.59476274 1099.77033192 565.49909578 1099.70277321 566.43083286 1099.63316727 C571.08456054 1099.28662693 575.73860983 1098.94592005 580.39360046 1098.61676025 C615.85899105 1096.10587696 651.15172907 1092.44156457 686.47094911 1088.4269529 C691.54762966 1087.85052096 696.62511269 1087.28161389 701.703125 1086.71704102 C747.14374864 1081.66383288 792.62797829 1076.53386933 837.6875 1068.6875 C838.75491425 1068.50368774 839.82232849 1068.31987549 840.92208862 1068.13049316 C892.99045415 1059.13829322 945.14987964 1048.09081049 995.29443359 1031.24365234 C998.83229849 1030.05628353 1002.37802909 1028.89570032 1005.92578125 1027.73828125 C1057.69872839 1010.60327151 1105.477138 983.74352442 1145 946 C1145.7417749 945.29907227 1145.7417749 945.29907227 1146.49853516 944.58398438 C1164.86654494 927.15353914 1178.65384164 906.13478006 1187.30859375 882.30859375 C1187.60737427 881.49171585 1187.90615479 880.67483795 1188.21398926 879.83320618 C1191.36902036 871.12056734 1194.22075856 862.31182947 1197.08422852 853.50021362 C1202.91898571 835.57925701 1209.2834192 817.98512681 1216.515625 800.57885742 C1216.82520142 799.82340637 1217.13477783 799.06795532 1217.45373535 798.28961182 C1218.02891174 796.88819625 1218.61349631 795.49058885 1219.20935059 794.09783936 C1220.25708113 791.53817798 1221.04042992 789.51308547 1220.82080078 786.72583008 C1219.36918617 783.6736398 1216.79945683 781.53943865 1214.375 779.25 C1210.2991097 775.34952777 1206.48966417 771.33368031 1202.80322266 767.06152344 C1199.79426639 763.62155231 1196.6425819 760.31752976 1193.5 757 C1166.3929964 728.38394672 1166.3929964 728.38394672 1165.75 707.6875 C1166.13624104 701.99044471 1166.74139101 697.81058232 1171 693.8125 C1176.26992547 689.69157296 1182.29672751 687 1189 687 C1189 686.34 1189 685.68 1189 685 C1188.34257812 684.75507812 1187.68515625 684.51015625 1187.0078125 684.2578125 C1169.81956258 677.0699989 1153.90605179 666.61690378 1138 657 C1137.42326538 656.65181213 1136.84653076 656.30362427 1136.25231934 655.94488525 C1123.17460483 648.04664967 1110.17183146 640.09029982 1097.72216797 631.22509766 C1096.04151793 630.02953458 1094.35208727 628.8474949 1092.66015625 627.66796875 C1073.23264862 614.04824545 1054.62097093 599.26898035 1036.57568359 583.875 C1033.30388001 581.08598818 1029.98241273 578.37244125 1026.625 575.6875 C1021.35173913 571.402493 1016.40618061 566.80695987 1011.47705078 562.13549805 C1008.42995578 559.24988504 1005.35566424 556.42602025 1002.171875 553.69140625 C997.20338492 549.37380219 992.57955003 544.72553895 987.9375 540.0625 C987.07833984 539.20720703 986.21917969 538.35191406 985.33398438 537.47070312 C980.34695896 532.47605811 975.57290328 527.37509241 971 522 C970.00304453 520.84727525 969.00566252 519.69491922 968.0078125 518.54296875 C962.67811869 512.34816522 957.42056274 506.10731099 952.265625 499.765625 C947.91285679 494.45224587 943.45412595 489.22843347 939 484 C938.25049072 483.11876465 938.25049072 483.11876465 937.48583984 482.21972656 C932.49499408 476.35504666 927.49541946 470.50920452 922.3125 464.8125 C919.28287132 461.47772886 916.39391908 458.06712361 913.5625 454.5625 C909.70579235 449.79359715 905.63540354 445.27485656 901.48046875 440.765625 C898.99535768 437.99482399 896.64555667 435.14948638 894.3125 432.25 C891.31104918 428.53115496 888.2265636 425.08813108 884.77954102 421.7824707 C883.00967442 420.00969034 881.39402049 418.16725052 879.7734375 416.2578125 C876.15694638 412.09899081 872.28995385 408.3064397 868.25 404.5625 C867.19522461 403.58047607 867.19522461 403.58047607 866.11914062 402.57861328 C860.59646635 397.47405547 854.88689183 392.67911918 849 388 C847.81072127 387.02168956 846.62335039 386.04105701 845.4375 385.05859375 C824.29285383 367.58454061 801.82232795 351.62950594 778 338 C777.00299072 337.42934814 777.00299072 337.42934814 775.98583984 336.84716797 C770.69181178 333.83379587 765.35306671 330.9068864 760 328 C759.1656543 327.54254395 758.33130859 327.08508789 757.47167969 326.61376953 C742.20605208 318.27691666 726.50298304 311.22304995 710.53231812 304.37757874 C705.04341393 302.02471102 699.57857718 299.62094144 694.125 297.1875 C693.04738403 296.70845215 693.04738403 296.70845215 691.94799805 296.21972656 C689.6136108 295.17987117 687.28604609 294.14302305 685 293 C682.6670134 292.95977609 680.33293334 292.95679753 678 293 C678.33 292.01 678.66 291.02 679 290 C701.85781164 279.4114549 736.81354967 293.46670007 758.75 301.375 C760.16904449 301.91040636 761.58692538 302.44903054 763 303 C762.47792969 302.44054687 761.95585938 301.88109375 761.41796875 301.3046875 C755.85179578 295.24136072 750.73565134 288.9395626 745.6875 282.4453125 C736.04978152 270.04907091 725.87846865 258.04331985 715.26171875 246.4765625 C713.33107495 244.36252421 711.43686868 242.22626052 709.5625 240.0625 C707.11018223 237.23512186 704.59667501 234.47279091 702.05224609 231.72802734 C697.24455893 226.5387516 692.68387755 221.22845392 688.24609375 215.71484375 C685.11479885 211.93006122 681.77995294 208.34694276 678.453125 204.734375 C676.12283732 202.13692058 673.92752832 199.47594286 671.75 196.75 C666.40596583 190.13132871 660.55533623 184.0135141 654.71923828 177.83251953 C652.13805126 175.08125714 649.60080647 172.29075688 647.0625 169.5 C640.75262527 161.88065094 640.75262527 161.88065094 633 156 C633 155.34 633 154.68 633 154 C632.42765625 153.75636719 631.8553125 153.51273438 631.265625 153.26171875 C628.59566462 151.77482702 626.86170993 150.01916092 624.75 147.8125 C621.31814248 144.30226401 617.8105258 140.99929486 614.0859375 137.8046875 C611.74974499 135.78348724 609.47035149 133.70621161 607.1875 131.625 C603.74621795 128.51471149 600.23678702 125.53521688 596.625 122.625 C592.61170223 119.38044659 588.77616452 116.01221615 585 112.5 C579.52194518 107.41642824 573.83071424 102.67224339 568 98 C566.822046 97.03100538 565.64501166 96.06089202 564.46875 95.08984375 C556.33439822 88.41427789 548.05071858 82.37139462 539 77 C538.32098633 76.59539551 537.64197266 76.19079102 536.94238281 75.77392578 C517.96729135 64.36862938 517.96729135 64.36862938 497 58 C494.679319 62.52754114 492.40032352 67.07340451 490.15869141 71.640625 C489.42089729 73.14295167 488.67884107 74.64319815 487.93115234 76.140625 C465.94428729 120.54607477 455.45405703 172.01191979 449 220.8125 C448.89386383 221.60624023 448.78772766 222.39998047 448.67837524 223.21777344 C445.76691611 238.15921878 445.76691611 238.15921878 448.9140625 252.171875 C449.80867188 253.02265625 450.70328125 253.8734375 451.625 254.75 C452.63608902 255.75322908 453.64647108 256.75717102 454.65625 257.76171875 C455.46835938 258.54168213 455.46835938 258.54168213 456.296875 259.33740234 C459.34447478 262.31248183 462.22511631 265.44441736 465.125 268.5625 C465.72441406 269.2021167 466.32382813 269.8417334 466.94140625 270.50073242 C471.07237836 274.92961118 474.97234542 279.49060584 478.75 284.2265625 C480.36590415 286.2183888 481.99657191 288.1604229 483.6875 290.0859375 C497.78345773 306.14052654 510.30430965 323.15189216 520.5 341.9375 C521.18799683 343.18285522 521.18799683 343.18285522 521.88989258 344.45336914 C522.5167395 345.63467407 522.5167395 345.63467407 523.15625 346.83984375 C523.53587891 347.54488037 523.91550781 348.24991699 524.30664062 348.97631836 C525.13422258 351.39175035 524.83894884 352.62730619 524 355 C523.52433594 354.1646875 523.52433594 354.1646875 523.0390625 353.3125 C519.00101093 346.70883556 514.22502973 342.51584527 508 338 C507.10796875 337.35289062 506.2159375 336.70578125 505.296875 336.0390625 C503.4564213 334.7086774 501.61526192 333.37926805 499.7734375 332.05078125 C486.73826208 322.4120952 474.55887181 311.45086835 462.6640625 300.44921875 C460.46909223 298.43126221 458.2533379 296.45196555 456 294.5 C452.65498842 291.59913933 449.38414257 288.62154792 446.125 285.625 C435.57680625 275.89430959 435.57680625 275.89430959 424.625 266.625 C420.6117345 263.38047268 416.77586874 260.01250676 413 256.5 C408.44405527 252.2660379 403.74728841 248.27068335 398.90234375 244.37109375 C395.61037398 241.6816918 392.39985991 238.90839531 389.1875 236.125 C384.05711626 231.69386442 378.81957572 227.4426882 373.46386719 223.2878418 C368.71388884 219.59231649 364.06915615 215.77989837 359.4375 211.9375 C352.41282696 206.11936977 345.2647107 200.51495062 338 195 C336.4286435 193.78764255 334.85729868 192.57526849 333.28735352 191.36108398 C314.27179702 176.66922338 294.90019591 162.47200682 275 149 C274.40719238 148.59749023 273.81438477 148.19498047 273.20361328 147.78027344 C246.89500054 129.94960933 219.73810112 113.35503037 191.67724609 98.42675781 C188.98310035 96.99099384 186.29829845 95.53868638 183.61328125 94.0859375 C158.96773782 80.86555283 133.59184388 69.68411133 107 61 C105.99485352 60.66919434 104.98970703 60.33838867 103.95410156 59.99755859 C71.26728559 49.40711689 36.91087736 45.62730073 3 41 C2.85643066 42.00788574 2.85643066 42.00788574 2.70996094 43.03613281 C1.82273525 46.74002547 0.27857741 50.00573791 -1.359375 53.421875 C-2.06420652 54.92026311 -2.76852997 56.41889029 -3.47241211 57.91772461 C-3.84381317 58.70452606 -4.21521423 59.49132751 -4.59786987 60.30197144 C-39.33759307 134.11640673 -59.09854674 213.57565219 -66.6875 299.3125 C-66.77890762 300.37525146 -66.77890762 300.37525146 -66.87216187 301.45947266 C-67.28310244 306.30394814 -67.65174771 311.15064958 -68 316 C-68.14683228 317.97383667 -68.14683228 317.97383667 -68.29663086 319.98754883 C-69.29963332 334.65973053 -69.20168881 349.36327499 -69.1875 364.0625 C-69.18708584 364.75210564 -69.18667168 365.44171127 -69.18624496 366.15221405 C-69.17044744 387.16307973 -69.03984571 408.06894305 -67 429 C-66.92458984 429.79144409 -66.84917969 430.58288818 -66.77148438 431.39831543 C-63.10293217 469.71450889 -57.23515405 507.61649903 -48 545 C-47.7107666 546.18400391 -47.4215332 547.36800781 -47.12353516 548.58789062 C-34.63894836 599.13221885 -15.5712461 647.35673127 6.3984375 694.453125 C7.13247089 696.03370468 7.86635886 697.6143519 8.60009766 699.19506836 C9.98826289 702.18509201 11.39332968 705.1662446 12.81005859 708.14282227 C22.28269487 728.29416108 22.28269487 728.29416108 20 739 C15.38939439 740.53686854 12.27335924 739.08698939 8 737 C-2.00239867 730.50891036 -7.33686478 720.12656734 -13 710 C-13.73935791 708.68032227 -13.73935791 708.68032227 -14.49365234 707.33398438 C-17.57780739 701.79857583 -20.59670886 696.2303311 -23.58300781 690.64160156 C-24.88242627 688.21918465 -26.19969889 685.80762077 -27.5234375 683.3984375 C-37.31211133 665.41413693 -45.73343009 646.48006831 -53.046875 627.359375 C-53.78839922 625.08134317 -53.78839922 625.08134317 -55 624 C-55.3403125 625.00417969 -55.680625 626.00835938 -56.03125 627.04296875 C-69.52420604 665.60646294 -102.3512586 690.72131774 -137.875 708 C-188.50370031 731.87300564 -253.71101702 754.05402126 -310.125 754.4375 C-311.01703125 754.47037109 -311.9090625 754.50324219 -312.828125 754.53710938 C-317.25381872 754.5734397 -319.31245846 754.52788425 -322.91015625 751.765625 C-326.7825093 746.64109049 -326.7825093 746.64109049 -328.3125 744.3125 C-329.08013672 743.16201172 -329.08013672 743.16201172 -329.86328125 741.98828125 C-331 740 -331 740 -331 738 C-330.34 738 -329.68 738 -329 738 C-329.04125 737.236875 -329.0825 736.47375 -329.125 735.6875 C-329 733 -329 733 -327 730 C-320.46785958 727.90458831 -313.20390996 727.66537942 -306.40307617 727.06420898 C-264.66396559 723.3469413 -223.8385471 712.67541101 -184 700 C-182.75573242 699.60844727 -181.51146484 699.21689453 -180.22949219 698.81347656 C-139.45184848 685.94621028 -98.95589243 669.1569339 -70.5 635.9375 C-67.79698152 632.78499081 -64.96611284 630.14579555 -61.67578125 627.6171875 C-61.12277344 627.08351563 -60.56976562 626.54984375 -60 626 C-59.17628906 625.22527344 -58.35257813 624.45054687 -57.50390625 623.65234375 C-55.18076469 618.01042852 -57.56642241 614.06229731 -59.82720947 608.61688232 C-61.20871459 605.27584045 -62.48896877 601.89585629 -63.78125 598.51953125 C-64.05228546 597.81739502 -64.32332092 597.11525879 -64.60256958 596.3918457 C-92.24984019 524.19814588 -102.98463535 442.83948212 -48.03515625 56.015625 C-46.63596375 52.90242067 -45.22669423 49.79391538 -43.8125 46.6875 C-43.48237915 45.96078094 -43.1522583 45.23406189 -42.81213379 44.48532104 C-39.32083325 36.82728978 -35.7059492 29.23818521 -31.82421875 21.76953125 C-31.51474808 21.16026291 -31.2052774 20.55099457 -30.88642883 19.92326355 C-28.7727707 15.93692605 -26.3003874 13.05398518 -23 10 C-21.7934375 8.7625 -21.7934375 8.7625 -20.5625 7.5 C-14.53276811 1.61733474 -8.83946162 -3.34466116 0 0 Z " fill="#000000" transform="translate(1052,286)"/>
<path d="M0 0 C0.495 3.96 0.495 3.96 1 8 C2.134375 7.690625 3.26875 7.38125 4.4375 7.0625 C57.71292381 -4.45427124 120.53403288 26.61746856 168 48 C169.39822998 48.62285889 169.39822998 48.62285889 170.82470703 49.25830078 C185.48586306 55.82690014 199.26002326 63.69529028 213 72 C213.76715332 72.45906738 214.53430664 72.91813477 215.32470703 73.39111328 C236.43933062 86.05014597 256.08060297 101.29222901 275 117 C276.79100674 118.45914373 278.58268846 119.9174593 280.375 121.375 C286.08880109 126.04992816 291.72154284 130.81695525 297.34716797 135.59716797 C298.97028067 136.97477588 300.5959304 138.34931757 302.22265625 139.72265625 C310.18213736 146.44270478 318.10359785 153.20596267 326 160 C326.62197266 160.53415527 327.24394531 161.06831055 327.88476562 161.61865234 C334.99973615 167.73251236 342.0519911 173.89622516 348.94067383 180.26464844 C351.52953243 182.65760052 354.14033856 185.01306494 356.8125 187.3125 C361.49962039 191.37074051 365.98718317 195.64354707 370.50878906 199.88378906 C374.23090553 203.36804686 377.99101645 206.78372608 381.859375 210.10546875 C384.27579651 212.24408998 386.62555215 214.4460619 388.97802734 216.65454102 C396.58448231 223.78824984 404.22253705 230.82836797 412.91015625 236.64453125 C424.63770593 244.59148006 424.63770593 244.59148006 426.375 250.5 C426.6223922 251.99405484 426.83707958 253.49439058 427 255 C427.33 255.99 427.66 256.98 428 258 C424.9818384 260.28648606 423.5067099 261.03029567 419.66796875 260.80078125 C405.37310832 257.67996508 391.50619852 241.55580227 381 232 C379.43769232 230.60395141 377.87518728 229.20812367 376.3125 227.8125 C371.32548149 223.32811013 366.43280687 218.74601783 361.53735352 214.16235352 C357.20150321 210.10761697 352.82491166 206.10432304 348.3984375 202.1484375 C345.70940633 199.73969622 343.04196128 197.3081455 340.375 194.875 C333.24065204 188.38741999 325.95182199 182.09349409 318.62573242 175.82470703 C314.23599492 172.06638204 309.86397132 168.28819713 305.5 164.5 C290.89722423 151.81770819 290.89722423 151.81770819 276.01953125 139.4609375 C273.71442231 137.5822588 271.42195089 135.69166404 269.13671875 133.7890625 C259.28318467 125.59614615 249.27338743 117.66040895 239 110 C238.27699707 109.45988281 237.55399414 108.91976562 236.80908203 108.36328125 C219.65847104 95.60919474 201.61422895 84.47896946 183 74 C182.0411792 73.45061768 182.0411792 73.45061768 181.06298828 72.89013672 C130.86038133 44.23908669 71.80310312 23.29941007 15.23486328 12.61474609 C10.81674988 11.77513783 6.40759828 10.89295971 2 10 C1.96459106 10.83047852 1.96459106 10.83047852 1.9284668 11.67773438 C1.42647908 18.95104399 -0.44040086 25.56304219 -2.57843018 32.51092529 C-18.26122921 83.72715316 -25.19692663 137.61571947 -28 191 C-28.05639648 191.93859863 -28.11279297 192.87719727 -28.17089844 193.84423828 C-33.37588778 280.68132373 -27.26203464 371.51169559 -6 456 C-5.60385498 457.61551758 -5.60385498 457.61551758 -5.19970703 459.26367188 C1.88446223 487.88073658 12.26379375 515.60891747 21.88085938 543.44433594 C23.21778202 547.31615069 24.54369106 551.19155455 25.86068726 555.07019043 C26.53616888 557.04790617 27.22530974 559.02046822 27.9152832 560.99316406 C30.30573932 568.03902264 31.75635342 574.5502924 32 582 C23.26764988 578.24688377 20.15384581 566.23461961 16.5 558.0625 C16.19797668 557.38972015 15.89595337 556.71694031 15.58477783 556.02377319 C-17.20322903 482.80308171 -35.67490946 406.07380194 -44 295 C-44.04912537 294.19374176 -44.09825073 293.38748352 -44.14886475 292.55679321 C-45.23698927 274.1985128 -45.24542561 255.82135549 -45.25 237.4375 C-45.25044186 236.62149323 -45.25088371 235.80548645 -45.25133896 234.9647522 C-45.2590087 207.87538721 -44.69742551 180.97555533 -42 154 C-41.87271515 152.70582153 -41.87271515 152.70582153 -41.74285889 151.38549805 C-37.46310601 108.19248713 -31.0981864 64.35991807 -17.63476562 22.97412109 C-17.05633345 21.17519703 -16.51812139 19.3634661 -15.984375 17.55078125 C-13.9666176 11.14696644 -11.48999758 7.81966275 -6 4 C-5.05125 3.21625 -4.1025 2.4325 -3.125 1.625 C-1 0 -1 0 0 0 Z " fill="#000000" transform="translate(1074,380)"/>
<path d="M0 0 C2.56452594 3.41936792 2.15940162 6.85555785 2 11 C1.34 11.33 0.68 11.66 0 12 C0 10.68 0 9.36 0 8 C-3.3 7.67 -6.6 7.34 -10 7 C-9.40251953 8.21623047 -9.40251953 8.21623047 -8.79296875 9.45703125 C5.08749393 38.46753597 -1.36087516 73.2005446 -11 103 C-14.25035646 111.39755793 -18.31922646 120.87948431 -26 126 C-30.31846067 126.70740499 -33.96864118 126.4827637 -37.9375 124.625 C-38.98852652 123.78650793 -40.00449937 122.90371688 -41 122 C-41.76183594 121.34 -42.52367187 120.68 -43.30859375 120 C-58.97266339 105.50417908 -65.08144219 85.41189863 -66.12109375 64.57275391 C-66.58293853 52.35003177 -65.59445787 40.93719476 -63 29 C-62.66455883 27.33375629 -62.33024977 25.66728041 -62 24 C-78.57673767 31.87679972 -93.76503582 40.10042478 -107 53 C-107.886875 53.845625 -108.77375 54.69125 -109.6875 55.5625 C-110.450625 56.366875 -111.21375 57.17125 -112 58 C-112.495 58.51175781 -112.99 59.02351562 -113.5 59.55078125 C-125.87041637 72.92343042 -135.04787095 89.62799125 -140.76953125 106.8125 C-142.52503257 111.36008437 -145.03822509 115.15274599 -148 119 C-151.28187872 118.43415884 -152.8676504 117.5600415 -155 115 C-159.35174427 107.34693248 -157.91516429 99.25452249 -156 91 C-154.67349678 86.7977566 -152.97774352 82.93332744 -151 79 C-150.38705078 77.71996094 -150.38705078 77.71996094 -149.76171875 76.4140625 C-142.34222847 61.83771876 -131.94811907 48.93454074 -120.42578125 37.4296875 C-119.02370902 36.0253575 -117.6358257 34.60589356 -116.2890625 33.1484375 C-92.93212576 8.25630304 -32.93933421 -21.97858522 0 0 Z " fill="#000000" transform="translate(1768,775)"/>
<path d="M0 0 C1.89840711 1.89840711 1.31901675 4.73620404 1.49267578 7.28320312 C3.66477162 37.5727802 14.15779373 68.08929245 30 94 C30.01981934 93.26362305 30.03963867 92.52724609 30.06005859 91.76855469 C30.15537828 88.42867944 30.26502996 85.08942361 30.375 81.75 C30.4059375 80.59113281 30.436875 79.43226563 30.46875 78.23828125 C30.50742188 77.12324219 30.54609375 76.00820313 30.5859375 74.859375 C30.6173584 73.83295898 30.6487793 72.80654297 30.68115234 71.74902344 C30.99983835 69.00139375 31.53421721 67.32430323 33 65 C36.43000646 62.45925447 39.85891777 62.55631262 44 63 C46.68658014 65.10569795 48.10067884 67.15101825 50 70 C50.21914062 69.01 50.43828125 68.02 50.6640625 67 C52.81226159 57.84262027 55.03150763 50.00648572 63.3125 44.5625 C68.00483328 42.2576755 72.85086996 41.28652523 78 42.453125 C83.87313852 44.86869004 87.63597036 49.62895927 91.703125 54.34375 C93.90869224 56.98640123 93.90869224 56.98640123 96.23828125 59.10546875 C98.46391728 61.49889108 98.83972074 63.67953602 99.1171875 66.89453125 C98.92258712 70.39085139 97.60731597 72.91395335 96 76 C87.80917989 75.17734121 82.02916173 69.65268879 76.875 63.5 C76.25625 62.675 75.6375 61.85 75 61 C71.16623194 62.64462365 69.56028119 64.54403931 67.78564453 68.38720703 C66.12467781 73.91103109 66.44039122 79.71577599 66.4375 85.4375 C66.36584435 105.63415565 66.36584435 105.63415565 61 111 C56.07245579 111 53.24464765 109.15594486 49.7421875 105.95703125 C46.06554812 101.82699463 43.46279556 96.92559112 41 92 C39.42408727 96.72773818 39.30105281 101.61488676 38.875 106.5625 C38.77574219 107.62919922 38.67648437 108.69589844 38.57421875 109.79492188 C38.44080078 111.32149414 38.44080078 111.32149414 38.3046875 112.87890625 C38.22202637 113.8129126 38.13936523 114.74691895 38.05419922 115.70922852 C37.82039317 118.03099011 37.82039317 118.03099011 39 120 C38.67 120.66 38.34 121.32 38 122 C36.515 121.505 36.515 121.505 35 121 C35 120.34 35 119.68 35 119 C34.13955078 119.34224609 34.13955078 119.34224609 33.26171875 119.69140625 C31 120 31 120 28.95703125 118.83984375 C22.12607155 112.78032212 17.5411462 105.80961448 13 98 C12.01386719 96.33710937 12.01386719 96.33710937 11.0078125 94.640625 C1.5884156 77.92024978 -5.15552131 59.53650529 -10 41 C-12.14098977 46.62009815 -13.04217391 52.34131446 -14 58.25 C-14.17442627 59.31686035 -14.34885254 60.3837207 -14.52856445 61.48291016 C-19.90609797 95.04535638 -19.63739614 128.15882385 -17 162 C-16.84223043 164.16274456 -16.68466699 166.32550418 -16.52734375 168.48828125 C-15.78215916 178.25184839 -14.74449201 187.69627075 -12.48828125 197.234375 C-12 200 -12 200 -13 203 C-21.91150921 173.66579934 -28.98183686 144.1921783 -29.23828125 113.3671875 C-29.24802979 112.3842421 -29.25777832 111.40129669 -29.26782227 110.38856506 C-29.89227041 31.00520461 -29.89227041 31.00520461 -15 3 C-9.50542287 -1.2342231 -6.41453477 -3.12058448 0 0 Z " fill="#000000" transform="translate(1123,762)"/>
</svg>
